<svg width="540" height="1096" viewBox="0 0 540 1096" fill="none" xmlns="http://www.w3.org/2000/svg">
<g opacity="0.1">
<rect y="95.2225" width="238.375" height="29.757" rx="14.8785" fill="#55585B"/>
<path d="M0 298.562C0 290.345 6.66134 283.684 14.8785 283.684H188.824C197.041 283.684 203.702 290.345 203.702 298.562C203.702 306.779 197.041 313.441 188.824 313.441H14.8785C6.66133 313.441 0 306.779 0 298.562Z" fill="#55585B"/>
<path d="M0 453.299C0 445.082 6.66134 438.42 14.8785 438.42H104.309C112.526 438.42 119.187 445.082 119.187 453.299C119.187 461.516 112.526 468.177 104.309 468.177H14.8785C6.66134 468.177 0 461.516 0 453.299Z" fill="#55585B"/>
<path d="M0 365.02C0 354.063 8.88179 345.182 19.838 345.182H196.867C207.823 345.182 216.705 354.063 216.705 365.02V386.841C216.705 397.798 207.823 406.679 196.866 406.679H19.838C8.88178 406.679 0 397.798 0 386.841V365.02Z" fill="#55585B"/>
<rect x="56.3436" y="158.704" width="175.531" height="29.757" rx="14.8785" fill="#55585B"/>
<rect y="220.202" width="418.24" height="29.757" rx="14.8785" fill="#55585B"/>
<rect width="539.594" height="29.757" rx="14.8785" fill="#55585B"/>
<rect y="53.5627" width="75.8466" height="29.757" rx="14.8785" fill="#55585B"/>
<rect x="91.0159" y="53.5627" width="32.5057" height="29.757" rx="14.8785" fill="#55585B"/>
<rect y="499.918" width="75.8466" height="29.757" rx="14.8785" fill="#55585B"/>
<rect x="91.0159" y="499.918" width="32.5057" height="29.757" rx="14.8785" fill="#55585B"/>
</g>
<g opacity="0.1">
<rect width="238.375" height="29.757" rx="14.8785" transform="matrix(1 0 0 -1 0 999.836)" fill="#55585B"/>
<path d="M0 796.497C0 804.714 6.66134 811.375 14.8785 811.375H188.824C197.041 811.375 203.702 804.714 203.702 796.497C203.702 788.279 197.041 781.618 188.824 781.618H14.8785C6.66133 781.618 0 788.279 0 796.497Z" fill="#55585B"/>
<rect width="175.531" height="29.757" rx="14.8785" transform="matrix(1 0 0 -1 56.3433 936.355)" fill="#55585B"/>
<rect width="418.24" height="29.757" rx="14.8785" transform="matrix(1 0 0 -1 0 874.857)" fill="#55585B"/>
<path d="M0 578.278C0 586.496 6.66134 593.157 14.8785 593.157H188.824C197.041 593.157 203.702 586.496 203.702 578.278C203.702 570.061 197.041 563.4 188.824 563.4H14.8785C6.66133 563.4 0 570.061 0 578.278Z" fill="#55585B"/>
<rect width="175.531" height="29.757" rx="14.8785" transform="matrix(1 0 0 -1 56.3432 718.136)" fill="#55585B"/>
<rect width="175.531" height="29.757" rx="14.8785" transform="matrix(1 0 0 -1 0 765.748)" fill="#55585B"/>
<rect width="418.24" height="29.757" rx="14.8785" transform="matrix(1 0 0 -1 0 656.639)" fill="#55585B"/>
<rect width="539.594" height="29.757" rx="14.8785" transform="matrix(1 0 0 -1 0 1095.06)" fill="#55585B"/>
<rect width="75.8466" height="29.757" rx="14.8785" transform="matrix(1 0 0 -1 0 1041.5)" fill="#55585B"/>
<rect width="32.5057" height="29.757" rx="14.8785" transform="matrix(1 0 0 -1 91.0168 1041.5)" fill="#55585B"/>
</g>
</svg>
