<svg width="162" height="78" viewBox="0 0 162 78" fill="none" xmlns="http://www.w3.org/2000/svg">
<path d="M18.792 38.637L0 29.025V21.951L18.792 12.312V21.168L3.942 26.838V24.138L18.792 29.781V38.637Z" fill="white"/>
<path d="M30.5805 39.825V0H45.3765C48.0585 0 50.5155 0.495 52.7475 1.485C54.9795 2.475 56.9055 3.861 58.5255 5.643C60.1455 7.425 61.3965 9.522 62.2785 11.934C63.1604 14.346 63.6015 16.974 63.6015 19.818C63.6015 22.662 63.1604 25.299 62.2785 27.729C61.3965 30.159 60.1455 32.283 58.5255 34.101C56.9055 35.901 54.9795 37.305 52.7475 38.313C50.5155 39.321 48.0585 39.825 45.3765 39.825H30.5805ZM41.4884 36.639L36.5745 31.725H43.9185C45.4665 31.725 46.8885 31.248 48.1844 30.294C49.4984 29.322 50.5515 27.945 51.3435 26.163C52.1355 24.381 52.5314 22.266 52.5314 19.818C52.5314 17.352 52.1355 15.246 51.3435 13.5C50.5515 11.754 49.4984 10.422 48.1844 9.504C46.8885 8.568 45.4665 8.1 43.9185 8.1H36.5745L41.4884 3.186V36.639Z" fill="white"/>
<path d="M74.4917 8.1L79.4057 3.186V18.711L76.9757 15.795H91.2857V23.895H76.9757L79.4057 21.006V36.639L74.4917 31.725H94.2827V39.825H68.4437V0H94.2827V8.1H74.4917Z" fill="white"/>
<path d="M107.533 39.825L98.3525 0H110.422L115.93 33.588H115.525L121.006 0H133.075L123.949 39.825H107.533Z" fill="white"/>
<path d="M142.963 12.312L161.755 21.951V29.025L142.963 38.637V29.781L157.813 24.138V26.838L142.963 21.168V12.312Z" fill="white"/>
<path d="M37.2 77.825H34.68C34.2267 77.825 34 77.5983 34 77.145V58.105C34 57.6517 34.2267 57.425 34.68 57.425H37.2C37.6533 57.425 37.88 57.6517 37.88 58.105V59.545H38.04C38.8133 58.1317 40.2267 57.425 42.28 57.425H43.6C45.92 57.425 47.5733 58.305 48.56 60.065C48.9867 59.2117 49.64 58.5583 50.52 58.105C51.4 57.6517 52.3467 57.425 53.36 57.425H54.64C56.5867 57.425 58.0667 57.9717 59.08 59.065C60.12 60.1317 60.64 61.6517 60.64 63.625V77.145C60.64 77.5983 60.4133 77.825 59.96 77.825H57.4C56.9467 77.825 56.72 77.5983 56.72 77.145V63.785C56.72 61.8117 55.76 60.8251 53.84 60.8251H52.68C50.4667 60.8251 49.36 61.985 49.36 64.305V77.145C49.36 77.5983 49.12 77.825 48.64 77.825H46.12C45.6667 77.825 45.44 77.5983 45.44 77.145V63.785C45.44 61.8117 44.48 60.8251 42.56 60.8251H41.16C38.9733 60.8251 37.88 61.9583 37.88 64.225V77.145C37.88 77.5983 37.6533 77.825 37.2 77.825Z" fill="#FF5100"/>
<path d="M83.9244 77.825H75.2844C73.311 77.825 71.7777 77.2783 70.6844 76.185C69.6177 75.0917 69.0844 73.5717 69.0844 71.625V63.625C69.0844 61.6517 69.6177 60.1317 70.6844 59.065C71.7777 57.9717 73.311 57.425 75.2844 57.425H78.5644C80.5377 57.425 82.071 57.9717 83.1644 59.065C84.2577 60.1317 84.8044 61.6517 84.8044 63.625V68.7051C84.8044 69.1851 84.5644 69.4251 84.0844 69.4251H73.3644C73.071 69.4251 72.9244 69.5583 72.9244 69.825V71.545C72.9244 73.4917 73.8977 74.465 75.8444 74.465H83.9244C84.4044 74.465 84.6444 74.705 84.6444 75.185V77.185C84.6444 77.6117 84.4044 77.825 83.9244 77.825ZM73.3644 66.7051H80.5244C80.791 66.7051 80.9244 66.5717 80.9244 66.305V63.745C80.9244 62.7317 80.6977 61.9983 80.2444 61.545C79.791 61.065 79.0577 60.8251 78.0444 60.8251H75.8444C74.831 60.8251 74.0977 61.065 73.6444 61.545C73.191 61.9983 72.9644 62.7317 72.9644 63.745V66.305C72.9644 66.5717 73.0977 66.7051 73.3644 66.7051Z" fill="#FF5100"/>
<path d="M107.651 77.825H99.0109C97.0376 77.825 95.5043 77.2783 94.4109 76.185C93.3443 75.0917 92.8109 73.5717 92.8109 71.625V63.625C92.8109 61.6517 93.3443 60.1317 94.4109 59.065C95.5043 57.9717 97.0376 57.425 99.0109 57.425H102.291C104.264 57.425 105.798 57.9717 106.891 59.065C107.984 60.1317 108.531 61.6517 108.531 63.625V68.7051C108.531 69.1851 108.291 69.4251 107.811 69.4251H97.0909C96.7976 69.4251 96.6509 69.5583 96.6509 69.825V71.545C96.6509 73.4917 97.6243 74.465 99.5709 74.465H107.651C108.131 74.465 108.371 74.705 108.371 75.185V77.185C108.371 77.6117 108.131 77.825 107.651 77.825ZM97.0909 66.7051H104.251C104.518 66.7051 104.651 66.5717 104.651 66.305V63.745C104.651 62.7317 104.424 61.9983 103.971 61.545C103.518 61.065 102.784 60.8251 101.771 60.8251H99.5709C98.5576 60.8251 97.8243 61.065 97.3709 61.545C96.9176 61.9983 96.6909 62.7317 96.6909 63.745V66.305C96.6909 66.5717 96.8243 66.7051 97.0909 66.7051Z" fill="#FF5100"/>
<path d="M117.538 60.8251H115.617C115.351 60.8251 115.164 60.7851 115.057 60.7051C114.977 60.5984 114.938 60.4251 114.938 60.1851V58.1051C114.938 57.6518 115.164 57.4251 115.617 57.4251H117.538C117.804 57.4251 117.938 57.2918 117.938 57.0251V53.4251C117.938 52.9718 118.177 52.7451 118.658 52.7451H121.178C121.631 52.7451 121.857 52.9718 121.857 53.4251V57.0251C121.857 57.2918 122.004 57.4251 122.298 57.4251H126.018C126.498 57.4251 126.738 57.6518 126.738 58.1051V60.1851C126.738 60.6118 126.498 60.8251 126.018 60.8251H122.298C122.004 60.8251 121.857 60.9584 121.857 61.2251V71.5051C121.857 73.4518 122.857 74.4251 124.857 74.4251H126.417C126.897 74.4251 127.137 74.6518 127.137 75.1051V77.1851C127.137 77.6118 126.897 77.8251 126.417 77.8251H124.258C122.284 77.8251 120.737 77.2918 119.617 76.2251C118.497 75.1584 117.938 73.6518 117.938 71.7051V61.2251C117.938 60.9584 117.804 60.8251 117.538 60.8251Z" fill="#FF5100"/>
</svg>
